<svg xmlns="http://www.w3.org/2000/svg" xmlns:xlink="http://www.w3.org/1999/xlink" width="600" zoomAndPan="magnify" viewBox="0 0 450 449.999984" height="600" preserveAspectRatio="xMidYMid meet" version="1.0"><defs><g/><clipPath id="5b2fcaa944"><path d="M 219.710938 108.769531 L 361.121094 108.769531 L 361.121094 323.699219 L 219.710938 323.699219 Z M 219.710938 108.769531 " clip-rule="nonzero"/></clipPath><clipPath id="68a7c851dd"><path d="M 69 0.769531 L 114 0.769531 L 114 163 L 69 163 Z M 69 0.769531 " clip-rule="nonzero"/></clipPath><clipPath id="8312d962a4"><path d="M 130 6 L 141.992188 6 L 141.992188 16 L 130 16 Z M 130 6 " clip-rule="nonzero"/></clipPath><clipPath id="4774774e97"><path d="M 0.710938 84 L 47 84 L 47 130 L 0.710938 130 Z M 0.710938 84 " clip-rule="nonzero"/></clipPath><clipPath id="d418ed9082"><path d="M 15 98 L 105 98 L 105 215.28125 L 15 215.28125 Z M 15 98 " clip-rule="nonzero"/></clipPath><clipPath id="73618ccc91"><rect x="0" width="143" y="0" height="216"/></clipPath><clipPath id="661f89f05e"><rect x="0" width="362" y="0" height="414"/></clipPath></defs><g transform="matrix(1, 0, 0, 1, 44, 18)"><g clip-path="url(#661f89f05e)"><g fill="#ffffff" fill-opacity="1"><g transform="translate(1.000005, 323.502926)"><g><path d="M 204.546875 0 L 158.8125 0 L 158.8125 -93.390625 L 73.109375 -93.390625 L 73.109375 0 L 27.234375 0 L 27.234375 -216.390625 L 73.109375 -216.390625 L 73.109375 -131.578125 L 158.8125 -131.578125 L 158.8125 -216.390625 L 204.546875 -216.390625 Z M 204.546875 0 "/></g></g></g><g fill="#ffffff" fill-opacity="1"><g transform="translate(224.732722, 152.282706)"><g><path d="M 35.625 0 L 31.765625 -3.75 C 27.921875 -0.8125 23.320312 0.65625 17.96875 0.65625 C 14.75 0.65625 11.953125 0.128906 9.578125 -0.921875 C 7.203125 -1.972656 5.367188 -3.457031 4.078125 -5.375 C 2.785156 -7.300781 2.140625 -9.554688 2.140625 -12.140625 C 2.140625 -14.753906 2.84375 -17.117188 4.25 -19.234375 C 5.65625 -21.359375 7.769531 -23.097656 10.59375 -24.453125 C 9.5625 -25.722656 8.828125 -26.941406 8.390625 -28.109375 C 7.953125 -29.273438 7.734375 -30.550781 7.734375 -31.9375 C 7.734375 -33.925781 8.25 -35.734375 9.28125 -37.359375 C 10.3125 -38.984375 11.804688 -40.257812 13.765625 -41.1875 C 15.734375 -42.125 18.066406 -42.59375 20.765625 -42.59375 C 23.492188 -42.59375 25.8125 -42.09375 27.71875 -41.09375 C 29.625 -40.101562 31.050781 -38.773438 32 -37.109375 C 32.957031 -35.453125 33.394531 -33.628906 33.3125 -31.640625 L 23.734375 -31.640625 C 23.773438 -32.710938 23.503906 -33.535156 22.921875 -34.109375 C 22.347656 -34.691406 21.585938 -34.984375 20.640625 -34.984375 C 19.691406 -34.984375 18.898438 -34.703125 18.265625 -34.140625 C 17.628906 -33.585938 17.3125 -32.875 17.3125 -32 C 17.3125 -31.164062 17.578125 -30.289062 18.109375 -29.375 C 18.648438 -28.46875 19.492188 -27.421875 20.640625 -26.234375 L 30.8125 -16.296875 C 30.894531 -16.492188 31.003906 -16.726562 31.140625 -17 C 31.273438 -17.28125 31.425781 -17.601562 31.59375 -17.96875 L 33.78125 -21.71875 L 43.953125 -21.71875 L 41.109375 -16.53125 C 40.035156 -14.195312 38.804688 -11.976562 37.421875 -9.875 L 47.46875 0 Z M 18.4375 -7.546875 C 21.09375 -7.546875 23.453125 -8.300781 25.515625 -9.8125 L 16.234375 -18.796875 C 13.378906 -17.328125 11.953125 -15.34375 11.953125 -12.84375 C 11.953125 -11.34375 12.535156 -10.082031 13.703125 -9.0625 C 14.878906 -8.050781 16.457031 -7.546875 18.4375 -7.546875 Z M 18.4375 -7.546875 "/></g></g></g><g clip-path="url(#5b2fcaa944)"><g transform="matrix(1, 0, 0, 1, 219, 108)"><g clip-path="url(#73618ccc91)"><g clip-path="url(#68a7c851dd)"><path fill="#ffffff" d="M 88.894531 1.121094 C 92.089844 1.777344 94.535156 3.15625 98.886719 6.664062 C 100.265625 7.824219 102.175781 9.109375 103.148438 9.546875 C 104.710938 10.296875 105.214844 10.359375 108.660156 10.328125 L 112.480469 10.296875 L 113.011719 13.710938 C 113.324219 15.589844 113.480469 17.1875 113.386719 17.3125 C 113.074219 17.59375 108.785156 18.316406 107.21875 18.316406 C 103.335938 18.347656 99.105469 16.6875 95.285156 13.617188 C 92.65625 11.519531 91.371094 10.832031 89.648438 10.609375 C 87.015625 10.234375 83.699219 12.585938 83.226562 15.121094 C 83.101562 15.777344 83.289062 20.445312 83.699219 25.707031 C 84.074219 30.875 84.355469 35.351562 84.355469 35.636719 C 84.355469 36.074219 83.855469 36.167969 80.410156 36.261719 C 76.933594 36.355469 76.429688 36.417969 76.023438 36.949219 C 75.429688 37.796875 75.460938 38.578125 76.210938 39.332031 C 76.777344 39.894531 77.246094 39.957031 80.753906 39.957031 C 84.542969 39.957031 84.667969 39.988281 84.824219 40.644531 C 84.886719 41.054688 85.546875 48.257812 86.234375 56.714844 C 87.894531 76.976562 89.304688 93.542969 89.679688 97.429688 C 89.835938 99.152344 90.273438 104.066406 90.617188 108.390625 C 90.964844 112.679688 91.746094 121.792969 92.339844 128.621094 C 92.9375 135.417969 93.4375 141.242188 93.4375 141.527344 C 93.4375 141.996094 93.84375 142.058594 96.476562 142.058594 C 99.671875 142.089844 100.234375 142.277344 100.890625 143.53125 C 101.550781 144.75 101.332031 146.097656 100.359375 147.101562 C 99.480469 147.976562 99.292969 148.007812 96.757812 148.007812 L 94.0625 148.007812 L 94.0625 149.480469 C 94.0625 150.328125 94.15625 151.484375 94.253906 152.113281 L 94.441406 153.269531 L 97.164062 153.394531 C 100.015625 153.550781 101.015625 153.929688 101.550781 155.117188 C 102.113281 156.339844 101.957031 157.34375 100.984375 158.40625 C 100.109375 159.378906 99.953125 159.441406 97.539062 159.535156 L 95.003906 159.660156 L 95.003906 162.414062 L 69.636719 162.414062 L 69.636719 156.121094 L 70.792969 156.371094 C 74.800781 157.15625 77.777344 154.929688 77.777344 151.109375 C 77.777344 147.539062 74.488281 144.941406 71.042969 145.722656 L 69.636719 146.035156 L 69.636719 139.394531 L 72.109375 139.394531 C 74.144531 139.394531 74.769531 139.269531 75.460938 138.738281 C 77.183594 137.453125 77.621094 136.546875 77.621094 134.230469 C 77.621094 132.316406 77.527344 131.972656 76.652344 130.878906 C 75.242188 129.15625 73.207031 128.371094 71.199219 128.777344 L 69.636719 129.125 L 69.636719 122.734375 L 71.734375 122.859375 C 73.550781 122.953125 74.050781 122.859375 75.117188 122.265625 C 78.246094 120.417969 78.6875 115.8125 75.960938 113.496094 C 74.582031 112.335938 72.984375 111.867188 71.167969 112.117188 L 69.636719 112.335938 L 69.636719 109.015625 C 69.636719 105.789062 69.667969 105.695312 70.292969 105.882812 C 71.453125 106.261719 73.644531 106.105469 74.800781 105.539062 C 77.589844 104.222656 78.65625 100.527344 77.027344 97.773438 C 75.898438 95.863281 73.988281 94.921875 71.640625 95.171875 L 69.949219 95.359375 L 69.949219 88.3125 L 71.890625 88.410156 C 73.519531 88.503906 74.082031 88.410156 75.117188 87.8125 C 76.746094 86.875 77.777344 85.027344 77.777344 83.082031 C 77.777344 81.296875 77.246094 80.140625 75.773438 78.855469 C 74.488281 77.726562 73.207031 77.414062 71.328125 77.695312 L 69.949219 77.886719 L 69.949219 71.339844 L 71.796875 71.496094 C 73.425781 71.652344 73.832031 71.558594 75.085938 70.839844 C 80.222656 67.832031 77.558594 60.0625 71.640625 60.753906 L 69.917969 60.941406 L 70.011719 37.546875 C 70.136719 11.613281 70.042969 12.992188 72.234375 8.855469 C 75.304688 3.0625 82.351562 -0.226562 88.894531 1.121094 Z M 74.832031 55.679688 C 74.582031 56.367188 74.644531 56.683594 75.117188 57.183594 C 75.585938 57.714844 76.054688 57.808594 77.933594 57.808594 L 80.191406 57.808594 L 80.378906 61.945312 C 80.503906 64.230469 80.816406 71.246094 81.066406 77.539062 C 82.476562 111.367188 82.789062 119.257812 82.976562 121.605469 L 83.164062 124.207031 L 87.800781 124.207031 L 87.800781 123.015625 C 87.800781 122.328125 87.238281 113.902344 86.546875 104.289062 C 85.355469 87.375 84.480469 74.878906 83.601562 61.691406 C 83.382812 58.214844 83.101562 55.242188 82.976562 55.023438 C 82.820312 54.769531 81.597656 54.675781 78.9375 54.738281 L 75.117188 54.832031 Z M 74.832031 55.679688 " fill-opacity="1" fill-rule="nonzero"/></g><path fill="#ffffff" d="M 126.824219 6.601562 C 126.949219 7.007812 127.890625 15.308594 127.890625 16.09375 C 127.890625 16.5625 127.574219 16.75 126.605469 16.90625 C 125.882812 17.03125 125.257812 17.0625 125.164062 17 C 125.070312 16.875 123.816406 7.449219 123.816406 6.726562 C 123.816406 6.382812 126.699219 6.257812 126.824219 6.601562 Z M 126.824219 6.601562 " fill-opacity="1" fill-rule="nonzero"/><g clip-path="url(#8312d962a4)"><path fill="#ffffff" d="M 136.5 9.578125 C 139.851562 11.332031 142.234375 12.742188 141.984375 12.835938 C 141.136719 13.117188 131.019531 15.777344 131.019531 15.714844 C 131.019531 15.714844 130.800781 13.929688 130.550781 11.769531 C 130.019531 7.324219 129.988281 6.445312 130.300781 6.476562 C 130.457031 6.476562 133.214844 7.886719 136.5 9.578125 Z M 136.5 9.578125 " fill-opacity="1" fill-rule="nonzero"/></g><path fill="#ffffff" d="M 120.8125 7.132812 C 120.90625 7.355469 121.1875 9.515625 121.46875 11.925781 C 121.75 14.339844 122.03125 16.6875 122.125 17.125 C 122.28125 17.910156 122.1875 17.941406 119.714844 18.472656 C 118.335938 18.785156 117.144531 18.972656 117.082031 18.910156 C 116.925781 18.722656 115.296875 7.355469 115.390625 7.257812 C 115.457031 7.195312 116.675781 7.070312 118.117188 6.945312 C 120.089844 6.789062 120.71875 6.851562 120.8125 7.132812 Z M 120.8125 7.132812 " fill-opacity="1" fill-rule="nonzero"/><path fill="#ffffff" d="M 70.792969 62.070312 C 72.265625 62.789062 73.078125 64.292969 73.078125 66.234375 C 73.078125 67.613281 72.921875 67.988281 72.046875 68.925781 C 71.421875 69.648438 70.417969 70.210938 69.320312 70.585938 C 67.316406 71.214844 66.378906 72.339844 66.097656 74.535156 C 65.625 77.917969 64.40625 79.042969 63.089844 77.351562 C 61.210938 74.941406 61.492188 71.183594 63.777344 68.707031 C 64.375 68.082031 64.5625 67.457031 64.6875 65.921875 C 64.8125 64.136719 64.9375 63.886719 66.128906 62.789062 C 67.597656 61.410156 69.007812 61.191406 70.792969 62.070312 Z M 70.792969 62.070312 " fill-opacity="1" fill-rule="nonzero"/><path fill="#ffffff" d="M 70.792969 78.980469 C 72.421875 79.796875 73.175781 81.296875 73.015625 83.398438 C 72.890625 84.933594 72.703125 85.308594 71.734375 86.183594 C 70.449219 87.375 68.695312 87.8125 67.316406 87.28125 C 66.472656 86.96875 66.285156 87 65.78125 87.59375 C 65.5 87.96875 65.25 88.441406 65.25 88.691406 C 65.25 89.628906 64.5625 92.230469 64.183594 92.761719 C 63.777344 93.292969 63.714844 93.292969 62.902344 92.761719 C 62.429688 92.449219 61.804688 91.632812 61.460938 90.914062 C 60.238281 88.1875 61.023438 85.027344 63.402344 83.148438 C 64.058594 82.613281 64.625 81.988281 64.625 81.769531 C 64.625 81.140625 66.128906 79.480469 67.160156 78.949219 C 68.289062 78.355469 69.539062 78.355469 70.792969 78.980469 Z M 70.792969 78.980469 " fill-opacity="1" fill-rule="nonzero"/><g clip-path="url(#4774774e97)"><path fill="#ffffff" d="M 44.171875 84.742188 C 44.734375 85.058594 45.394531 85.777344 45.675781 86.277344 C 46.207031 87.3125 46.300781 89.941406 45.832031 90.695312 C 45.019531 92.011719 8.5625 128.402344 7.558594 128.9375 C 3.519531 131.003906 -0.769531 126.867188 1.234375 122.859375 C 1.828125 121.667969 38.097656 85.214844 39.316406 84.554688 C 40.539062 83.929688 42.980469 83.992188 44.171875 84.742188 Z M 44.171875 84.742188 " fill-opacity="1" fill-rule="nonzero"/></g><path fill="#ffffff" d="M 70.261719 96.238281 C 71.796875 96.800781 73.078125 98.835938 73.078125 100.75 C 73.078125 104.097656 69.414062 106.199219 66.597656 104.476562 C 63.871094 102.816406 63.871094 98.304688 66.597656 96.644531 C 67.535156 96.050781 69.257812 95.863281 70.261719 96.238281 Z M 70.261719 96.238281 " fill-opacity="1" fill-rule="nonzero"/><g clip-path="url(#d418ed9082)"><path fill="#ffffff" d="M 47.867188 101.71875 C 50.65625 106.074219 54.289062 113.527344 55.824219 118.097656 C 57.296875 122.515625 58.484375 128.246094 58.988281 133.289062 C 59.175781 135.261719 59.457031 144.941406 59.582031 154.773438 L 59.832031 172.65625 L 60.550781 173.941406 C 61.898438 176.351562 65.0625 177.167969 67.097656 175.632812 C 68.882812 174.285156 69.164062 173.597656 69.257812 169.746094 L 69.382812 166.175781 L 95.253906 166.175781 L 95.441406 167.804688 C 95.535156 168.710938 95.722656 170.839844 95.816406 172.5 L 96.039062 175.570312 L 99.105469 175.570312 C 104.710938 175.570312 104.839844 175.789062 104.648438 185.71875 C 104.523438 191.980469 104.460938 193.078125 103.960938 193.796875 C 103.085938 195.113281 101.675781 195.425781 97.476562 195.175781 L 93.78125 194.957031 L 92.402344 197.714844 C 88.238281 205.980469 80.753906 211.996094 71.578125 214.46875 C 68.070312 215.410156 61.429688 215.410156 57.640625 214.46875 C 48.433594 212.183594 41.039062 206.324219 36.5625 197.714844 C 32.804688 190.476562 31.894531 185.183594 30.800781 163.980469 C 30.078125 150.484375 28.324219 143.46875 24.097656 137.078125 C 22.40625 134.574219 19.085938 131.160156 16.957031 129.78125 C 16.140625 129.25 15.453125 128.714844 15.453125 128.621094 C 15.453125 128.371094 45.332031 98.523438 45.582031 98.523438 C 45.675781 98.523438 46.710938 99.964844 47.867188 101.71875 Z M 47.867188 101.71875 " fill-opacity="1" fill-rule="nonzero"/></g><path fill="#ffffff" d="M 70.417969 113.371094 C 72.078125 114.121094 72.859375 115.25 73.015625 117.128906 C 73.175781 119.195312 72.390625 120.730469 70.761719 121.511719 C 67.660156 122.984375 64.5625 120.949219 64.5625 117.441406 C 64.5625 114.214844 67.597656 112.117188 70.417969 113.371094 Z M 70.417969 113.371094 " fill-opacity="1" fill-rule="nonzero"/><path fill="#ffffff" d="M 70.574219 130.09375 C 74.707031 132.160156 73.394531 138.613281 68.851562 138.613281 C 66.347656 138.613281 64.5625 136.703125 64.5625 133.976562 C 64.5625 132.378906 65.1875 131.347656 66.816406 130.21875 C 68.070312 129.375 69.101562 129.34375 70.574219 130.09375 Z M 70.574219 130.09375 " fill-opacity="1" fill-rule="nonzero"/><path fill="#ffffff" d="M 70.574219 147.007812 C 74.769531 149.105469 73.363281 155.527344 68.695312 155.527344 C 64.375 155.527344 63.058594 149.386719 66.878906 147.070312 C 68.164062 146.285156 69.164062 146.285156 70.574219 147.007812 Z M 70.574219 147.007812 " fill-opacity="1" fill-rule="nonzero"/></g></g></g></g></g></svg>